<?xml version="1.0" encoding="UTF-8"?>
<svg width="315px" height="100px" viewBox="0 0 315 100" version="1.1" xmlns="http://www.w3.org/2000/svg" xmlns:xlink="http://www.w3.org/1999/xlink">
    <title>2</title>
    <g id="Page-1" stroke="none" stroke-width="1" fill="none" fill-rule="evenodd">
        <g id="2">
            <rect id="base" fill="#FBFBFB" x="0" y="0" width="315" height="100" rx="5"></rect>
            <g id="QR-Code" transform="translate(76.000000, 38.000000)" fill="#000000" fill-rule="nonzero">
                <g id="qr_code">
                    <path d="M1.33333333,8 L6.66666667,8 C7.40304633,8 8,7.40304633 8,6.66666667 L8,1.33333333 C8,0.596953667 7.40304633,0 6.66666667,0 L1.33333333,0 C0.596953667,0 0,0.596953667 0,1.33333333 L0,6.66666667 C0,7.40304633 0.596953667,8 1.33333333,8 Z M2.66666667,2.66666667 L5.33333333,2.66666667 L5.33333333,5.33333333 L2.66666667,5.33333333 L2.66666667,2.66666667 Z M0.666666667,13.3333333 L2,13.3333333 C2.36818983,13.3333333 2.66666667,13.0348565 2.66666667,12.6666667 L2.66666667,11.3333333 C2.66666667,10.9651435 2.36818983,10.6666667 2,10.6666667 L0.666666667,10.6666667 C0.298476833,10.6666667 0,10.9651435 0,11.3333333 L0,12.6666667 C0,13.0348565 0.298476833,13.3333333 0.666666667,13.3333333 Z M6.66666667,16 L1.33333333,16 C0.596953667,16 0,16.5969537 0,17.3333333 L0,22.6666667 C0,23.4030463 0.596953667,24 1.33333333,24 L6.66666667,24 C7.40304633,24 8,23.4030463 8,22.6666667 L8,17.3333333 C8,16.5969537 7.40304633,16 6.66666667,16 Z M5.33333333,21.3333333 L2.66666667,21.3333333 L2.66666667,18.6666667 L5.33333333,18.6666667 L5.33333333,21.3333333 Z M19.3333333,24 L23.3333333,24 C23.7015232,24 24,23.7015232 24,23.3333333 L24,19.3333333 C24,18.9651435 23.7015232,18.6666667 23.3333333,18.6666667 L22,18.6666667 C21.6318102,18.6666667 21.3333333,18.9651435 21.3333333,19.3333333 L21.3333333,21.3333333 L18.6666667,21.3333333 L18.6666667,23.3333333 C18.6666667,23.7015232 18.9651435,24 19.3333333,24 Z M22.6666667,0 L17.3333333,0 C16.5969537,0 16,0.596953667 16,1.33333333 L16,6.66666667 C16,7.40304633 16.5969537,8 17.3333333,8 L22.6666667,8 C23.4030463,8 24,7.40304633 24,6.66666667 L24,1.33333333 C24,0.596953667 23.4030463,0 22.6666667,0 Z M21.3333333,5.33333333 L18.6666667,5.33333333 L18.6666667,2.66666667 L21.3333333,2.66666667 L21.3333333,5.33333333 Z M6,10.6666667 C5.63181017,10.6666667 5.33333333,10.9651435 5.33333333,11.3333333 L5.33333333,12.6666667 C5.33333333,13.0348565 5.63181017,13.3333333 6,13.3333333 L10.6666667,13.3333333 L10.6666667,10.6666667 L6,10.6666667 Z M10.6666667,15.3333333 C10.6666667,15.7015232 10.9651435,16 11.3333333,16 L13.3333333,16 L13.3333333,18 C13.3333333,18.3681898 13.6318102,18.6666667 14,18.6666667 L16,18.6666667 L16,13.3333333 L10.6666667,13.3333333 L10.6666667,15.3333333 Z M10.6666667,22 L10.6666667,23.3333333 C10.6666667,23.7015232 10.9651435,24 11.3333333,24 L15.3333333,24 C15.7015232,24 16,23.7015232 16,23.3333333 L16,21.3333333 L11.3333333,21.3333333 C10.9651435,21.3333333 10.6666667,21.6318102 10.6666667,22 Z M23.3333333,10.6666667 L16.6666667,10.6666667 C16.2984768,10.6666667 16,10.9651435 16,11.3333333 L16,13.3333333 L18.6666667,13.3333333 L18.6666667,15.3333333 C18.6666667,15.7015232 18.9651435,16 19.3333333,16 L20.6666667,16 C21.0348565,16 21.3333333,15.7015232 21.3333333,15.3333333 L21.3333333,13.3333333 L23.3333333,13.3333333 C23.7015232,13.3333333 24,13.0348565 24,12.6666667 L24,11.3333333 C24,10.9651435 23.7015232,10.6666667 23.3333333,10.6666667 Z M18.6666667,21.3333333 L18.6666667,18.6666667 L16,18.6666667 L16,21.3333333 L18.6666667,21.3333333 Z M11.3333333,5.33333333 L12.6666667,5.33333333 C13.0348565,5.33333333 13.3333333,5.0348565 13.3333333,4.66666667 L13.3333333,0.666666667 C13.3333333,0.298476833 13.0348565,0 12.6666667,0 L11.3333333,0 C10.9651435,0 10.6666667,0.298476833 10.6666667,0.666666667 L10.6666667,4.66666667 C10.6666667,5.0348565 10.9651435,5.33333333 11.3333333,5.33333333 Z M13.3333333,10 L13.3333333,8.66666667 C13.3333333,8.29847683 13.0348565,8 12.6666667,8 L11.3333333,8 C10.9651435,8 10.6666667,8.29847683 10.6666667,8.66666667 L10.6666667,10.6666667 L12.6666667,10.6666667 C13.0348565,10.6666667 13.3333333,10.3681898 13.3333333,10 Z" id="Icon-color"></path>
                    <path d="M40.2755832,18 C41.7119565,18 42.9944327,17.5564304 44.0375133,16.7545932 L45.3028897,17.7952756 L48.7912248,17.7952756 L45.5593849,15.1338583 C46.1749735,14.1614173 46.5511665,12.984252 46.5511665,11.7388451 C46.5511665,8.27559055 43.7468187,5.47769029 40.2755832,5.47769029 C36.8043478,5.47769029 34,8.27559055 34,11.7388451 C34,15.2020997 36.8043478,18 40.2755832,18 Z M40.2755832,15.6115486 C38.1552227,15.6115486 36.4965536,13.8543307 36.4965536,11.7388451 C36.4965536,9.62335958 38.1552227,7.86614173 40.2755832,7.86614173 C42.3959438,7.86614173 44.0546129,9.62335958 44.0546129,11.7388451 C44.0546129,12.3700787 43.9178155,12.9671916 43.6271209,13.5301837 L41.7290562,11.9435696 L40.3097826,13.6496063 L42.0881495,15.1338583 C41.5409597,15.4580052 40.9424708,15.6115486 40.2755832,15.6115486 Z M51.5613733,17.7952756 L51.5613733,12.6942257 L52.1598621,12.6942257 L56.3321845,17.7952756 L59.3246288,17.7952756 L54.96421,12.4212598 C56.5886797,11.9265092 57.4607635,10.9028871 57.4607635,9.26509186 C57.4607635,7.2519685 55.9901909,5.6824147 53.7330329,5.6824147 L49.0819194,5.6824147 L49.0819194,17.7952756 L51.5613733,17.7952756 Z M53.4423383,10.5787402 L51.5613733,10.5787402 L51.5613733,7.95144357 L53.4423383,7.95144357 C54.3828208,7.95144357 54.9984093,8.42913386 54.9984093,9.26509186 C54.9984093,10.0839895 54.3828208,10.5787402 53.4423383,10.5787402 Z M69.7554348,18 C72.2348887,18 74.3210498,16.7375328 75.3641304,14.7755906 L73.2095705,13.5813648 C72.4742842,14.8267717 71.3286055,15.6115486 69.7554348,15.6115486 C67.6350742,15.6115486 65.9764051,13.8543307 65.9764051,11.7388451 C65.9764051,9.62335958 67.6350742,7.86614173 69.7554348,7.86614173 C71.3286055,7.86614173 72.4742842,8.65091864 73.2095705,9.89632546 L75.3641304,8.70209974 C74.3210498,6.77427822 72.217789,5.47769029 69.7554348,5.47769029 C66.2841994,5.47769029 63.4798515,8.27559055 63.4798515,11.7388451 C63.4798515,15.2020997 66.2841994,18 69.7554348,18 Z M80.7847296,17.9829396 C83.2641835,17.9829396 85.2819459,16.0380577 85.2819459,13.5301837 C85.2819459,11.0393701 83.2641835,9.07742782 80.7847296,9.07742782 C78.3052757,9.07742782 76.2875133,11.0393701 76.2875133,13.5301837 C76.2875133,16.0380577 78.3052757,17.9829396 80.7847296,17.9829396 Z M80.7847296,15.7992126 C79.5535525,15.7992126 78.6472694,14.843832 78.6472694,13.5301837 C78.6472694,12.2165354 79.5535525,11.2611549 80.7847296,11.2611549 C81.998807,11.2611549 82.9050901,12.2165354 82.9050901,13.5301837 C82.9050901,14.843832 81.998807,15.7992126 80.7847296,15.7992126 Z M90.4460498,17.9829396 C91.6259279,17.9829396 92.5151113,17.3858268 92.908404,16.839895 L92.908404,17.7952756 L95.2510604,17.7952756 L95.2510604,5 L92.908404,5 L92.908404,10.2204724 C92.5151113,9.67454068 91.6259279,9.07742782 90.4460498,9.07742782 C88.1717922,9.07742782 86.4276246,11.1246719 86.4276246,13.5301837 C86.4276246,15.9356955 88.1717922,17.9829396 90.4460498,17.9829396 Z M90.9419406,15.8503937 C89.6423648,15.8503937 88.7873807,14.8779528 88.7873807,13.5301837 C88.7873807,12.1824147 89.6423648,11.2099738 90.9419406,11.2099738 C92.2415164,11.2099738 93.0965005,12.1824147 93.0965005,13.5301837 C93.0965005,14.8779528 92.2415164,15.8503937 90.9419406,15.8503937 Z M101.509544,17.9829396 C103.305011,17.9829396 104.672985,17.2322835 105.47667,16.0721785 L103.732503,14.7755906 C103.33921,15.3727034 102.603924,15.8503937 101.526644,15.8503937 C100.398065,15.8503937 99.3891835,15.2191601 99.252386,14.0761155 L105.647667,14.0761155 C105.698966,13.7178478 105.681866,13.4790026 105.681866,13.2742782 C105.681866,10.4934383 103.715403,9.07742782 101.475345,9.07742782 C98.876193,9.07742782 96.9781283,11.0052493 96.9781283,13.5301837 C96.9781283,16.2257218 98.9616914,17.9829396 101.509544,17.9829396 Z M103.33921,12.4895013 L99.3378844,12.4895013 C99.5601803,11.4488189 100.534862,11.0052493 101.406946,11.0052493 C102.27903,11.0052493 103.134014,11.4658793 103.33921,12.4895013 Z M115.736479,17.7952756 L118.40403,11.3635171 L121.07158,17.7952756 L123.397137,17.7952756 L126.321182,5.6824147 L123.687831,5.6824147 L121.841066,13.7349081 L118.40403,5.47769029 L114.966994,13.7349081 L113.120228,5.6824147 L110.486877,5.6824147 L113.410923,17.7952756 L115.736479,17.7952756 Z M131.211691,17.9829396 C132.391569,17.9829396 133.280753,17.3858268 133.674046,16.839895 L133.674046,17.7952756 L136.016702,17.7952756 L136.016702,9.26509186 L133.674046,9.26509186 L133.674046,10.2204724 C133.280753,9.67454068 132.391569,9.07742782 131.211691,9.07742782 C128.937434,9.07742782 127.193266,11.1246719 127.193266,13.5301837 C127.193266,15.9356955 128.937434,17.9829396 131.211691,17.9829396 Z M131.707582,15.8503937 C130.408006,15.8503937 129.553022,14.8779528 129.553022,13.5301837 C129.553022,12.1824147 130.408006,11.2099738 131.707582,11.2099738 C133.007158,11.2099738 133.862142,12.1824147 133.862142,13.5301837 C133.862142,14.8779528 133.007158,15.8503937 131.707582,15.8503937 Z M140.633616,17.7952756 L140.633616,5 L138.29096,5 L138.29096,17.7952756 L140.633616,17.7952756 Z M145.233431,17.7952756 L145.233431,5 L142.890774,5 L142.890774,17.7952756 L145.233431,17.7952756 Z M151.474814,17.9829396 C153.270281,17.9829396 154.638256,17.2322835 155.441941,16.0721785 L153.697773,14.7755906 C153.30448,15.3727034 152.569194,15.8503937 151.491914,15.8503937 C150.363335,15.8503937 149.354454,15.2191601 149.217656,14.0761155 L155.612937,14.0761155 C155.664236,13.7178478 155.647137,13.4790026 155.647137,13.2742782 C155.647137,10.4934383 153.680673,9.07742782 151.440615,9.07742782 C148.841463,9.07742782 146.943399,11.0052493 146.943399,13.5301837 C146.943399,16.2257218 148.926962,17.9829396 151.474814,17.9829396 Z M153.30448,12.4895013 L149.303155,12.4895013 C149.525451,11.4488189 150.500133,11.0052493 151.372216,11.0052493 C152.2443,11.0052493 153.099284,11.4658793 153.30448,12.4895013 Z M161.512328,17.8976378 C162.179215,17.8976378 162.606707,17.8293963 163,17.7099738 L163,15.6456693 C162.726405,15.7480315 162.401511,15.7992126 162.042418,15.7992126 C161.016437,15.7992126 160.588945,15.3897638 160.588945,14.3490814 L160.588945,11.312336 L163,11.312336 L163,9.26509186 L160.588945,9.26509186 L160.588945,6.89370079 L158.246288,6.89370079 L158.246288,9.26509186 L156.519221,9.26509186 L156.519221,11.312336 L158.246288,11.312336 L158.246288,14.8097113 C158.246288,16.9081365 159.699761,17.8976378 161.512328,17.8976378 Z" id="QRCodeWallet"></path>
                </g>
            </g>
        </g>
    </g>
</svg>